<?xml version="1.0" encoding="UTF-8"?>
<svg width="26px" height="30px" viewBox="0 0 26 30" version="1.1" xmlns="http://www.w3.org/2000/svg" xmlns:xlink="http://www.w3.org/1999/xlink">
    <!-- Generator: Sketch 45 (43475) - http://www.bohemiancoding.com/sketch -->
    <title>bookmark</title>
    <desc>Created with Sketch.</desc>
    <defs></defs>
    <g id="Welcome" stroke="none" stroke-width="1" fill="none" fill-rule="evenodd">
        <g id="invoice-builder-main" transform="translate(-1449.000000, -152.000000)" fill="#717577">
            <g id="bookmark" transform="translate(1462.000000, 167.000000) scale(-1, 1) translate(-1462.000000, -167.000000) translate(1449.000000, 152.000000)">
                <path d="M26,3.23764727 C26,1.48364691 24.5779229,0.0435203095 22.815582,0.0046157904 L22.815582,0 L3.23084773,0 C1.45126151,0 0,1.43946721 0,3.21193072 L0,30 L10.0812266,23.3183137 L20.1624531,30 L20.1624531,13.1879726 L26,13.1879726 L26,3.23764727 Z M19.1031914,28.0270793 L10.0812266,22.0483119 L1.06257813,28.0270793 L1.06257813,3.21193072 C1.06257813,2.02171619 2.03362331,1.0556972 3.23084773,1.0556972 L20.2194954,1.0556972 C19.6988188,1.56343415 19.3287074,2.22283278 19.1781423,2.95938104 L19.1754892,2.96201864 C19.1522743,3.0780728 19.1343657,3.19610515 19.1211,3.3174345 C19.1084977,3.44074204 19.1031914,3.56734658 19.1031914,3.69329172 L19.1031914,28.0270793 Z M24.9407383,12.131616 L20.1624531,12.131616 L20.1624531,3.69329172 C20.1624531,3.51327589 20.1836782,3.33787586 20.2168423,3.16775101 C20.4217965,2.17139968 21.2018164,1.37550554 22.1940866,1.13548444 C22.2146483,1.13020925 22.2305671,1.12295586 22.2511289,1.11768068 C22.3778158,1.08932653 22.5151152,1.07877616 22.6497615,1.07152277 C22.6942014,1.06888518 22.7353249,1.0583348 22.7797648,1.0583348 C23.971683,1.07877616 24.9407383,2.05007034 24.9407383,3.23764727 L24.9407383,12.131616 Z" id="Fill-1"></path>
            </g>
        </g>
    </g>
</svg>