<?xml version="1.0" encoding="UTF-8"?>
<svg width="30px" height="31px" viewBox="0 0 30 31" version="1.1" xmlns="http://www.w3.org/2000/svg" xmlns:xlink="http://www.w3.org/1999/xlink">
    <!-- Generator: Sketch 45 (43475) - http://www.bohemiancoding.com/sketch -->
    <title>Group 4</title>
    <desc>Created with Sketch.</desc>
    <defs>
        <linearGradient x1="19.9542026%" y1="-32.9453125%" x2="56.483028%" y2="121.765625%" id="linearGradient-1">
            <stop stop-color="#F38C2C" offset="0%"></stop>
            <stop stop-color="#F96E2D" offset="100%"></stop>
        </linearGradient>
    </defs>
    <g id="Welcome" stroke="none" stroke-width="1" fill="none" fill-rule="evenodd">
        <g id="v4" transform="translate(-451.000000, -1559.000000)" fill="url(#linearGradient-1)">
            <g id="Group-5" transform="translate(451.000000, 1553.000000)">
                <g id="Group-4" transform="translate(0.000000, 6.000000)">
                    <path d="M10.2290306,20.3831783 C9.64038637,18.5237765 9.53770087,17.8352769 9.19203602,16.7433192 C8.84637118,15.6513615 8.84637118,14.5594038 10.2290306,13.831432 C11.6116899,13.1034602 12.6486845,13.4674461 13.3400142,15.6513615 C14.0313131,17.8352769 14.376978,17.471291 15.7596374,15.2873756 C17.1422967,13.1034602 23.3642639,2.91188723 25.0925882,1.45594362 C26.8209124,0 28.2035718,0 28.8949015,0 C29.5862312,0 31.3145554,0 28.2035718,2.91188723 C28.2035718,2.91188723 16.7966319,18.5632487 15.4139725,21.8391219 C15.4139725,21.8391219 14.7226428,22.9310796 13.685679,22.9310796 C12.6486845,22.9310796 11.2660251,23.6590514 10.2290306,20.3831783" id="Fill-4"></path>
                    <path d="M11.4999232,31 C8.42824589,31 5.54031595,29.8038325 3.36823974,27.6316722 C1.19620196,25.4595118 0,22.5718796 0,19.5001921 C0,16.4281204 1.19620196,13.5404882 3.36820132,11.3683278 C5.54031595,9.19616753 8.42824589,8 11.4999232,8 C12.5989104,8 13.4898659,8.89107373 13.4898659,9.99002623 C13.4898659,11.0889787 12.5989104,11.9796682 11.4999232,11.9796682 C9.49122913,11.9796682 7.6026894,12.7619994 6.18231725,14.1825685 C4.7619451,15.6027532 3.97969334,17.4913377 3.97969334,19.5001921 C3.97969334,21.5086623 4.7619451,23.3972468 6.18235567,24.8178158 C7.6026894,26.2380006 9.49122913,27.0203318 11.4999232,27.0203318 C13.508694,27.0203318 15.3972722,26.2380006 16.8174522,24.8178158 C18.2380165,23.3972468 19.0203451,21.5086623 19.0203451,19.5001921 C19.0203451,18.4012396 19.9110316,17.5101659 21.0099804,17.5101659 C22.1089293,17.5101659 23,18.4012396 23,19.5001921 C23,22.5718796 21.8038365,25.4595118 19.6316834,27.6316722 C17.4595303,29.8038325 14.5715236,31 11.4999232,31" id="Fill-6" opacity="0.476449275"></path>
                </g>
            </g>
        </g>
    </g>
</svg>