<?xml version="1.0" encoding="UTF-8"?>
<svg width="300px" height="33px" viewBox="0 0 300 33" version="1.1" xmlns="http://www.w3.org/2000/svg" xmlns:xlink="http://www.w3.org/1999/xlink">
    <!-- Generator: Sketch 42 (36781) - http://www.bohemiancoding.com/sketch -->
    <title>logo-invoicetemplate (3)</title>
    <desc>Created with Sketch.</desc>
    <defs>
        <linearGradient x1="-1.11022302e-14%" y1="50%" x2="100%" y2="50%" id="linearGradient-1">
            <stop stop-color="#FBDA61" offset="0%"></stop>
            <stop stop-color="#FB6223" offset="100%"></stop>
        </linearGradient>
    </defs>
    <g id="Page-1" stroke="none" stroke-width="1" fill="none" fill-rule="evenodd">
        <g id="logo-invoicetemplate-(3)" fill-rule="nonzero">
            <g id="Page-1">
                <g id="logo-invoicetemplate">
                    <path d="M40.4646018,24.4300885 L40.4646018,8.37168142 C40.4646018,7.64867257 39.8176991,7.00176991 39.0946903,7.00176991 C38.2575221,7.00176991 37.6106195,7.64867257 37.6106195,8.37168142 L37.6106195,24.4300885 C37.6106195,25.1911504 38.2575221,25.8380531 39.0185841,25.8380531 C39.8176991,25.8380531 40.4646018,25.1911504 40.4646018,24.4300885 Z M61.4318584,24.4300885 L61.4318584,12.7097345 C61.4318584,8.71415929 59.4150442,6.77345133 55.5716814,6.77345133 C52.8318584,6.77345133 50.320354,8.37168142 49.0265487,9.89380531 L49.0265487,8.37168142 C49.0265487,7.64867257 48.379646,7.00176991 47.6566372,7.00176991 C46.819469,7.00176991 46.1725664,7.64867257 46.1725664,8.37168142 L46.1725664,24.4300885 C46.1725664,25.1911504 46.819469,25.8380531 47.580531,25.8380531 C48.379646,25.8380531 49.0265487,25.1911504 49.0265487,24.4300885 L49.0265487,12.1769912 C50.0920354,10.6929204 52.2230088,9.32300885 54.4681416,9.32300885 C56.9415929,9.32300885 58.5778761,10.3504425 58.5778761,13.5849558 L58.5778761,24.4300885 C58.5778761,25.1911504 59.2247788,25.8380531 59.9858407,25.8380531 C60.7849558,25.8380531 61.4318584,25.1911504 61.4318584,24.4300885 Z M82.2469027,8.40973451 C82.2469027,7.64867257 81.6,7.00176991 80.7628319,7.00176991 C80.1920354,7.00176991 79.659292,7.34424779 79.4309735,7.87699115 L73.6088496,22.299115 L67.7486726,7.87699115 C67.520354,7.30619469 66.9876106,7.00176991 66.4168142,7.00176991 C65.579646,7.00176991 64.9707965,7.68672566 64.9707965,8.40973451 C64.9707965,8.5619469 65.0088496,8.75221239 65.0849558,8.90442478 L71.5539823,24.5061947 C71.8964602,25.3053097 72.6575221,25.8380531 73.5327434,25.8380531 L73.5707965,25.8380531 C74.5221239,25.8380531 75.3212389,25.3053097 75.6637168,24.5061947 L82.1327434,8.90442478 C82.2088496,8.75221239 82.2469027,8.5619469 82.2469027,8.40973451 Z M102.909735,16.400885 C102.909735,21.7283186 99.4088496,26.0663717 93.8150442,26.0663717 C88.2212389,26.0663717 84.720354,21.7283186 84.720354,16.400885 C84.720354,11.0734513 88.2212389,6.77345133 93.8150442,6.77345133 C99.4088496,6.77345133 102.909735,11.0734513 102.909735,16.400885 Z M99.9035398,16.400885 C99.9035398,12.6716814 97.7345133,9.32300885 93.8150442,9.32300885 C89.8955752,9.32300885 87.6884956,12.6716814 87.6884956,16.400885 C87.6884956,20.1681416 89.8955752,23.5168142 93.8150442,23.5168142 C97.7345133,23.5168142 99.9035398,20.1681416 99.9035398,16.400885 Z M108.960177,0.761061947 C107.932743,0.761061947 107.057522,1.63628319 107.057522,2.70176991 C107.057522,3.76725664 107.932743,4.60442478 108.960177,4.60442478 C110.025664,4.60442478 110.900885,3.76725664 110.900885,2.70176991 C110.900885,1.63628319 110.025664,0.761061947 108.960177,0.761061947 Z M110.406195,24.4300885 L110.406195,8.37168142 C110.406195,7.64867257 109.759292,7.00176991 109.036283,7.00176991 C108.199115,7.00176991 107.552212,7.64867257 107.552212,8.37168142 L107.552212,24.4300885 C107.552212,25.1911504 108.199115,25.8380531 108.960177,25.8380531 C109.759292,25.8380531 110.406195,25.1911504 110.406195,24.4300885 Z M130.574336,22.8699115 C130.574336,22.1469027 129.927434,21.6141593 129.242478,21.6141593 C128.9,21.6141593 128.557522,21.7283186 128.29115,21.9566372 C127.187611,23.0221239 125.893805,23.5168142 124.371681,23.5168142 C120.452212,23.5168142 118.016814,20.4725664 118.016814,16.400885 C118.016814,12.3292035 120.452212,9.32300885 124.371681,9.32300885 C125.893805,9.32300885 127.187611,9.77964602 128.29115,10.8451327 C128.557522,11.1115044 128.9,11.2637168 129.280531,11.2637168 C130.00354,11.2637168 130.574336,10.6168142 130.574336,9.9699115 C130.574336,9.66548673 130.460177,9.39911504 130.269912,9.17079646 C128.861947,7.72477876 126.997345,6.77345133 124.219469,6.77345133 C118.739823,6.77345133 115.048673,10.959292 115.048673,16.400885 C115.048673,21.880531 118.739823,26.0663717 124.219469,26.0663717 C126.997345,26.0663717 128.861947,25.1150442 130.269912,23.6690265 C130.49823,23.440708 130.574336,23.1362832 130.574336,22.8699115 Z M151.731858,15.7920354 C151.731858,16.6292035 151.046903,17.3522124 150.171681,17.3522124 L136.89115,17.3522124 C137.119469,20.8150442 139.554867,23.7070796 143.512389,23.7070796 C145.262832,23.7070796 147.013274,23.1362832 148.459292,21.9946903 C148.649558,21.880531 148.877876,21.8044248 149.106195,21.8044248 C149.600885,21.8044248 150.247788,22.2610619 150.247788,22.9840708 C150.247788,24.9628319 145.49115,26.0663717 143.246018,26.0663717 C137.804425,26.0663717 133.884956,22.1469027 133.884956,16.400885 C133.884956,11.0734513 137.690265,6.77345133 142.941593,6.77345133 C147.507965,6.77345133 150.514159,9.66548673 151.465487,13.8893805 C151.579646,14.460177 151.731858,15.1451327 151.731858,15.7920354 Z M148.953982,15.259292 C148.915929,12.519469 147.089381,9.13274336 142.90354,9.13274336 C138.984071,9.13274336 137.043363,12.4433628 136.89115,15.259292 L148.953982,15.259292 Z M164.822124,24.2778761 C164.822124,23.4787611 164.213274,22.8699115 163.376106,22.8699115 C162.995575,22.8699115 162.538938,23.060177 162.120354,23.060177 C161.016814,23.060177 160.331858,22.1849558 160.331858,20.7769912 L160.331858,10.1982301 L162.843363,10.1982301 C163.642478,10.1982301 164.289381,9.55132743 164.289381,8.75221239 C164.289381,7.87699115 163.642478,7.2300885 162.843363,7.2300885 L160.331858,7.2300885 L160.331858,3.61504425 C160.331858,2.73982301 159.570796,1.97876106 158.657522,1.97876106 C157.668142,1.97876106 156.90708,2.73982301 156.90708,3.61504425 L156.90708,7.2300885 L155.118584,7.2300885 C154.281416,7.2300885 153.634513,7.87699115 153.634513,8.67610619 C153.634513,9.55132743 154.281416,10.1982301 155.118584,10.1982301 L156.90708,10.1982301 L156.90708,21.5761062 C156.90708,24.4681416 158.429204,26.0663717 161.321239,26.0663717 C163.338053,26.0663717 164.822124,25.4955752 164.822124,24.2778761 Z M184.876106,15.7920354 C184.876106,16.7053097 184.076991,17.5044248 183.125664,17.5044248 L170.339823,17.5044248 C170.606195,20.6628319 172.889381,23.3265487 176.618584,23.3265487 C178.178761,23.3265487 179.853097,22.7938053 181.184956,21.8044248 C181.413274,21.6902655 181.679646,21.6141593 181.946018,21.6141593 C182.554867,21.6141593 183.315929,22.1469027 183.315929,22.9840708 C183.315929,25.0389381 178.597345,26.0663717 176.276106,26.0663717 C170.79646,26.0663717 166.800885,22.1849558 166.800885,16.400885 C166.800885,11.0734513 170.644248,6.77345133 175.971681,6.77345133 C180.423894,6.77345133 183.468142,9.55132743 184.533628,13.6610619 C184.685841,14.2699115 184.876106,15.0690265 184.876106,15.7920354 Z M181.60354,15.1070796 C181.527434,12.6336283 179.853097,9.51327434 175.933628,9.51327434 C172.280531,9.51327434 170.492035,12.5575221 170.339823,15.1070796 L181.60354,15.1070796 Z M214.938053,24.1637168 L214.938053,12.3292035 C214.938053,8.6 213.111504,6.77345133 209.724779,6.77345133 C207.023009,6.77345133 204.587611,8.48584071 203.522124,10.160177 C202.951327,8.21946903 201.353097,6.77345133 198.537168,6.77345133 C195.797345,6.77345133 193.361947,8.67610619 192.600885,9.81769912 L192.600885,8.6380531 C192.600885,7.76283186 191.839823,7.00176991 190.964602,7.00176991 C189.975221,7.00176991 189.214159,7.76283186 189.214159,8.6380531 L189.214159,24.1637168 C189.214159,25.0769912 189.975221,25.8380531 190.888496,25.8380531 C191.839823,25.8380531 192.600885,25.0769912 192.600885,24.1637168 L192.600885,12.4814159 C193.514159,11.1115044 195.340708,9.77964602 197.129204,9.77964602 C199.450442,9.77964602 200.363717,11.1876106 200.363717,13.3566372 L200.363717,24.1637168 C200.363717,25.0769912 201.124779,25.8380531 202.038053,25.8380531 C202.989381,25.8380531 203.750442,25.0769912 203.750442,24.1637168 L203.750442,12.4433628 C204.625664,11.1115044 206.490265,9.77964602 208.354867,9.77964602 C210.6,9.77964602 211.551327,11.1876106 211.551327,13.3566372 L211.551327,24.1637168 C211.551327,25.0769912 212.312389,25.8380531 213.225664,25.8380531 C214.176991,25.8380531 214.938053,25.0769912 214.938053,24.1637168 Z M238.036283,16.400885 C238.036283,22.3752212 234.649558,26.0663717 229.854867,26.0663717 C227.419469,26.0663717 225.288496,24.9628319 223.804425,22.9460177 L223.804425,31.2035398 C223.804425,32.0787611 223.043363,32.839823 222.092035,32.839823 C221.178761,32.839823 220.417699,32.0787611 220.417699,31.2035398 L220.417699,8.6380531 C220.417699,7.76283186 221.178761,7.00176991 222.168142,7.00176991 C223.043363,7.00176991 223.804425,7.76283186 223.804425,8.6380531 L223.804425,9.85575221 C225.136283,8.02920354 227.343363,6.77345133 229.854867,6.77345133 C234.649558,6.77345133 238.036283,10.3884956 238.036283,16.400885 Z M234.992035,16.400885 C234.992035,12.5575221 232.794469,9.77964602 229.158496,9.77964602 C227.000885,9.77964602 224.763363,10.9973451 223.804425,12.4814159 L223.804425,20.320354 C224.763363,21.8044248 227.000885,23.060177 229.158496,23.060177 C232.794469,23.060177 234.992035,20.2442478 234.992035,16.400885 Z M245.684956,24.1637168 L245.684956,1.63628319 C245.684956,0.761061947 244.923894,0 244.048673,0 C243.059292,0 242.29823,0.761061947 242.29823,1.63628319 L242.29823,24.1637168 C242.29823,25.0769912 243.059292,25.8380531 243.972566,25.8380531 C244.923894,25.8380531 245.684956,25.0769912 245.684956,24.1637168 Z M265.929204,24.1637168 C265.929204,25.0769912 265.168142,25.8380531 264.216814,25.8380531 L264.102655,25.8380531 C263.417699,25.8380531 262.542478,25.2672566 262.542478,24.1637168 L262.542478,23.5548673 C261.058407,25.1911504 258.965487,26.0663717 256.492035,26.0663717 C253.447788,26.0663717 250.099115,24.0115044 250.099115,19.9778761 C250.099115,15.8300885 253.447788,13.9654867 256.492035,13.9654867 C259.00354,13.9654867 261.09646,14.7646018 262.542478,16.400885 L262.542478,13.3185841 C262.542478,10.9973451 260.639823,9.62743363 258.052212,9.62743363 C256.339823,9.62743363 254.817699,10.160177 253.447788,11.2256637 C253.181416,11.4159292 252.876991,11.5300885 252.610619,11.5300885 C251.925664,11.5300885 251.202655,10.9973451 251.202655,10.1982301 C251.202655,9.89380531 251.316814,9.58938053 251.545133,9.32300885 C253.295575,7.57256637 256.073451,6.77345133 258.546903,6.77345133 C262.504425,6.77345133 265.929204,8.48584071 265.929204,13.1663717 L265.929204,24.1637168 Z M262.542478,21.5761062 L262.542478,18.4557522 C261.515044,17.0477876 259.688496,16.3247788 257.785841,16.3247788 C255.312389,16.3247788 253.523894,17.8469027 253.523894,20.0539823 C253.523894,22.1849558 255.312389,23.6690265 257.785841,23.6690265 C259.688496,23.6690265 261.515044,22.9840708 262.542478,21.5761062 Z M279.932743,24.2778761 C279.932743,23.4787611 279.323894,22.8699115 278.486726,22.8699115 C278.106195,22.8699115 277.649558,23.060177 277.230973,23.060177 C276.127434,23.060177 275.442478,22.1849558 275.442478,20.7769912 L275.442478,10.1982301 L277.953982,10.1982301 C278.753097,10.1982301 279.4,9.55132743 279.4,8.75221239 C279.4,7.87699115 278.753097,7.2300885 277.953982,7.2300885 L275.442478,7.2300885 L275.442478,3.61504425 C275.442478,2.73982301 274.681416,1.97876106 273.768142,1.97876106 C272.778761,1.97876106 272.017699,2.73982301 272.017699,3.61504425 L272.017699,7.2300885 L270.229204,7.2300885 C269.392035,7.2300885 268.745133,7.87699115 268.745133,8.67610619 C268.745133,9.55132743 269.392035,10.1982301 270.229204,10.1982301 L272.017699,10.1982301 L272.017699,21.5761062 C272.017699,24.4681416 273.539823,26.0663717 276.431858,26.0663717 C278.448673,26.0663717 279.932743,25.4955752 279.932743,24.2778761 Z M299.986726,15.7920354 C299.986726,16.7053097 299.187611,17.5044248 298.236283,17.5044248 L285.450442,17.5044248 C285.716814,20.6628319 288,23.3265487 291.729204,23.3265487 C293.289381,23.3265487 294.963717,22.7938053 296.295575,21.8044248 C296.523894,21.6902655 296.790265,21.6141593 297.056637,21.6141593 C297.665487,21.6141593 298.426549,22.1469027 298.426549,22.9840708 C298.426549,25.0389381 293.707965,26.0663717 291.386726,26.0663717 C285.90708,26.0663717 281.911504,22.1849558 281.911504,16.400885 C281.911504,11.0734513 285.754867,6.77345133 291.082301,6.77345133 C295.534513,6.77345133 298.578761,9.55132743 299.644248,13.6610619 C299.79646,14.2699115 299.986726,15.0690265 299.986726,15.7920354 Z M296.714159,15.1070796 C296.638053,12.6336283 294.963717,9.51327434 291.044248,9.51327434 C287.39115,9.51327434 285.602655,12.5575221 285.450442,15.1070796 L296.714159,15.1070796 Z" id="invoicetemplate" fill="#323639"></path>
                    <rect id="Rectangle-2" fill="url(#linearGradient-1)" x="7.07964602" y="7.96460177" width="26.5486726" height="3.53982301" rx="1.7699115"></rect>
                    <rect id="Rectangle-2-Copy-3" fill="url(#linearGradient-1)" x="12.8318584" y="0.884955752" width="28.3185841" height="3.53982301" rx="1.7699115"></rect>
                    <rect id="Rectangle-2-Copy" fill="url(#linearGradient-1)" x="17.699115" y="15.0442478" width="15.9292035" height="3.53982301" rx="1.7699115"></rect>
                    <rect id="Rectangle-2-Copy-2" fill="url(#linearGradient-1)" x="0" y="22.1238938" width="33.6283186" height="3.53982301" rx="1.7699115"></rect>
                </g>
            </g>
        </g>
    </g>
</svg>