<svg id="Layer_1" data-name="Layer 1" xmlns="http://www.w3.org/2000/svg" viewBox="0 0 45 45"><defs><style>.cls-1{fill:#999;}</style></defs><title>SkylarkDasosCross</title><path class="cls-1" d="M705,362.27a1.77,1.77,0,0,0-2.49,0L683,381.77l-19.5-19.5a1.77,1.77,0,0,0-2.49,0,1.76,1.76,0,0,0,0,2.49l19.5,19.5L661,403.75a1.76,1.76,0,0,0,0,2.49,1.8,1.8,0,0,0,1.25.52,1.76,1.76,0,0,0,1.24-.52L683,386.75l19.49,19.49a1.8,1.8,0,0,0,1.25.52,1.77,1.77,0,0,0,1.24-3l-19.49-19.49L705,364.76A1.76,1.76,0,0,0,705,362.27Z" transform="translate(-660.49 -361.76)"/></svg>