<?xml version="1.0" encoding="utf-8"?>
<!-- Generator: Adobe Illustrator 22.0.1, SVG Export Plug-In . SVG Version: 6.00 Build 0)  -->
<svg version="1.1" id="Layer_1" xmlns="http://www.w3.org/2000/svg" xmlns:xlink="http://www.w3.org/1999/xlink" x="0px" y="0px"
	 viewBox="0 0 212.9 49.4" style="enable-background:new 0 0 212.9 49.4;" xml:space="preserve">
<style type="text/css">
	.st0{fill:#FFFFFF;}
	.st1{fill:#ED1C24;}
</style>
<title>Skylark Logo</title>
<path class="st0" d="M56,45.3c0,0.7-0.2,1.3-0.6,1.8C54.5,48,53,48,52,47.1c-0.4-0.5-0.7-1.2-0.6-1.8v-5.4h-1.6v5.3
	c-0.1,1.1,0.3,2.2,1,3c0.7,0.8,1.8,1.2,2.8,1.1l0,0c1.1,0.1,2.1-0.4,2.9-1.1c0.7-0.8,1.1-1.9,1-3v-5.3H56L56,45.3z"/>
<path class="st0" d="M39.1,40.8c-0.4-0.3-0.9-0.5-1.4-0.6c-0.6-0.1-1.1-0.2-1.7-0.2h-3.3v9.3H36c0.6,0,1.2-0.1,1.7-0.2
	c0.5-0.1,1-0.3,1.4-0.7c0.6-0.4,1-1,1.4-1.6c0.6-1.3,0.6-2.9,0-4.3C40.1,41.8,39.6,41.2,39.1,40.8 M34.3,41.4h1.5
	c0.4,0,0.9,0,1.3,0.1c0.3,0.1,0.6,0.2,0.9,0.4c0.4,0.3,0.7,0.7,0.9,1.1c0.5,1,0.5,2.1,0,3.1c-0.2,0.4-0.5,0.8-0.9,1.1
	c-0.3,0.2-0.6,0.3-0.9,0.4c-0.4,0.1-0.9,0.1-1.3,0.1h-1.5V41.4z"/>
<path class="st0" d="M212.8,45.6c-0.1-0.3-0.3-0.6-0.5-0.8c-0.5-0.5-1.1-0.8-1.7-1l-0.2-0.1c-0.4-0.1-0.8-0.4-1.1-0.6
	c-0.1-0.2-0.2-0.4-0.2-0.6c0-0.3,0.1-0.6,0.3-0.8c0.5-0.4,1.1-0.4,1.7-0.2c0.3,0.1,0.6,0.3,0.9,0.5l0.7,0.5v-1.7l-0.1-0.2l-0.1-0.1
	c-0.3-0.2-0.6-0.4-1-0.5c-1.1-0.3-2.2-0.1-3.1,0.6c-0.5,0.5-0.8,1.2-0.8,1.9c0,0.6,0.2,1.1,0.5,1.6c0.5,0.5,1.1,0.9,1.8,1.1
	c0.5,0.2,0.9,0.4,1.3,0.7c0.2,0.2,0.2,0.4,0.2,0.6c0,0.3-0.1,0.7-0.3,0.9c-0.5,0.4-1.2,0.5-1.8,0.1c-0.4-0.2-0.7-0.4-1-0.6l-0.7-0.6
	v1.8l0.1,0.2l0.1,0.1c0.4,0.3,0.8,0.5,1.2,0.6c0.4,0.1,0.8,0.2,1.2,0.2c0.8,0,1.5-0.3,2.1-0.8C212.9,47.8,213.2,46.7,212.8,45.6"/>
<polygon class="st0" points="21.7,46.5 16.3,40 14.9,39.9 14.9,49.2 16.5,49.2 16.5,42.6 21.9,49.2 23.2,49.2 23.2,39.9 21.7,39.9 
	"/>
<path class="st0" d="M71.4,44.6c0.3-0.2,0.5-0.4,0.7-0.6c0.3-0.5,0.5-1,0.5-1.6c0-0.7-0.3-1.5-0.9-1.9c-0.7-0.5-1.5-0.7-2.3-0.6H67
	v9.3h1.6v-4h0.2c0.3,0,0.6,0,1,0.1c0.1,0,0.3,0.1,0.4,0.2c0.1,0.2,0.3,0.3,0.4,0.5c0.2,0.3,0.4,0.6,0.7,1l1.5,2.3h1.8L71.7,45
	C71.6,44.9,71.5,44.8,71.4,44.6 M70.8,43.2c-0.1,0.2-0.3,0.3-0.5,0.4c-0.2,0.1-0.3,0.1-0.5,0.1c-0.2,0-0.6,0-1.3,0h-0.1v-2.3h1
	c0.4,0,0.8,0.1,1.2,0.3c0.2,0.2,0.4,0.5,0.4,0.8C71,42.7,70.9,43,70.8,43.2L70.8,43.2z"/>
<polygon class="st0" points="2.1,45.2 5.8,45.2 5.8,43.8 2.1,43.8 2.1,41.4 5.9,41.4 5.9,39.9 0.5,39.9 0.5,49.2 6,49.2 6,47.8 
	2.1,47.8 "/>
<polygon class="st0" points="195.1,45.2 198.8,45.2 198.8,43.8 195.1,43.8 195.1,41.4 198.9,41.4 198.9,39.9 193.5,39.9 193.5,49.2 
	199,49.2 199,47.8 195.1,47.8 "/>
<polygon class="st0" points="146.5,43.8 141.9,43.8 141.9,39.9 140.3,39.9 140.3,49.2 141.9,49.2 141.9,45.3 146.5,45.3 146.5,49.2 
	148.1,49.2 148.1,39.9 146.5,39.9 "/>
<polygon class="st0" points="179.8,43.5 177,40 175.6,39.9 175.6,49.2 177.1,49.2 177.1,42.6 179.8,46 182.5,42.7 182.5,49.2 
	184.1,49.2 184.1,39.9 182.8,39.9 "/>
<path class="st0" d="M165.2,41.2c-0.4-0.4-1-0.8-1.5-1c-1.2-0.5-2.5-0.5-3.7,0c-1.2,0.5-2.1,1.4-2.6,2.6c-0.2,0.6-0.4,1.2-0.4,1.8
	c0,0.6,0.1,1.3,0.4,1.9c0.2,0.6,0.6,1.1,1,1.6c0.4,0.4,1,0.8,1.5,1c0.6,0.2,1.2,0.4,1.9,0.4c0.8,0,1.6-0.2,2.3-0.5
	c1.1-0.6,2-1.6,2.3-2.8c0.3-1.1,0.3-2.2-0.1-3.2C166,42.2,165.7,41.6,165.2,41.2 M165,44.6c0,0.4-0.1,0.9-0.2,1.3
	c-0.3,0.8-0.9,1.4-1.7,1.8c-0.8,0.3-1.7,0.3-2.5,0c-0.4-0.2-0.7-0.4-1-0.7c-0.3-0.3-0.5-0.7-0.7-1.1c-0.2-0.4-0.2-0.8-0.2-1.3
	c0-0.4,0.1-0.9,0.2-1.3c0.2-0.4,0.4-0.8,0.7-1c0.3-0.3,0.7-0.6,1-0.7c0.4-0.2,0.8-0.3,1.2-0.2c0.4,0,0.8,0.1,1.2,0.3
	c0.4,0.2,0.7,0.4,1,0.7c0.3,0.3,0.5,0.7,0.7,1.1C164.9,43.7,165,44.1,165,44.6L165,44.6z"/>
<polygon class="st0" points="100.1,46.5 94.7,40 93.3,39.9 93.3,49.2 94.8,49.2 94.8,42.6 100.3,49.2 101.6,49.2 101.6,39.9 
	100.1,39.9 "/>
<rect x="82.2" y="39.9" class="st0" width="1.6" height="9.3"/>
<path class="st0" d="M117,40c-1.1-0.3-2.3-0.3-3.5,0.1c-0.6,0.2-1.1,0.6-1.6,1c-0.4,0.4-0.8,1-1,1.5c-0.2,0.6-0.4,1.2-0.4,1.8
	c0,0.8,0.2,1.6,0.6,2.3c0.4,0.7,0.9,1.3,1.6,1.7c0.4,0.3,0.9,0.5,1.3,0.6c0.5,0.1,1,0.2,1.5,0.2c0.5,0,1-0.1,1.5-0.2
	c0.5-0.1,1.1-0.4,1.6-0.6l0.2-0.1v-4h-3.3V46h1.8v1.5c-0.3,0.1-0.6,0.2-0.8,0.3c-0.8,0.2-1.6,0.2-2.3-0.1c-0.4-0.2-0.7-0.4-1-0.7
	c-0.3-0.3-0.5-0.7-0.7-1.1c-0.2-0.4-0.2-0.8-0.2-1.3c0-1.5,0.9-2.7,2.3-3.1c0.7-0.2,1.5-0.2,2.2,0.1c0.5,0.1,1,0.4,1.5,0.6l0.7,0.4
	v-1.8l-0.2-0.1C118.1,40.4,117.6,40.2,117,40"/>
<path class="st1" d="M0,34.5c0.8,0.4,1.7,0.8,2.6,1.1c1.1,0.4,2.3,0.6,3.5,0.8c1.3,0.2,2.6,0.3,3.9,0.3c2.1,0,4.2-0.3,6.3-0.9
	c1.6-0.5,3.1-1.3,4.4-2.4c1.1-1,2-2.2,2.6-3.5c0.6-1.3,0.9-2.8,0.9-4.3c0-1.5-0.3-3.1-1-4.5c-0.7-1.4-1.7-2.6-3-3.5
	c-1.6-1.1-3.3-2-5.1-2.7c-1.3-0.5-2.5-1-3.7-1.6c-0.8-0.4-1.5-0.9-2.1-1.5c-0.4-0.5-0.6-1.2-0.6-1.9c0-0.6,0.2-1.2,0.6-1.7
	c0.4-0.6,1-1,1.7-1.2c0.9-0.4,1.9-0.5,2.9-0.5c1,0,2.1,0.1,3.1,0.3c0.8,0.2,1.7,0.4,2.5,0.7C19.8,7.8,20.4,8,21,8.3l1.8-6.5
	c-1.2-0.6-2.5-1-3.8-1.3c-1.7-0.4-3.5-0.5-5.2-0.5C11.9,0,10,0.3,8.2,0.9C6.7,1.3,5.2,2.1,4,3.1C2.9,4,2,5.2,1.4,6.5
	c-0.6,1.3-0.9,2.8-0.9,4.2c0,1.6,0.4,3.2,1.2,4.6c0.9,1.4,2,2.6,3.4,3.5c1.6,1.1,3.3,1.9,5.1,2.5c1.2,0.4,2.3,0.9,3.4,1.5
	c0.7,0.4,1.4,0.9,1.9,1.6c0.4,0.6,0.6,1.3,0.6,2c0,0.7-0.2,1.4-0.6,2c-0.5,0.6-1.1,1.1-1.9,1.4c-1,0.3-2,0.5-3.1,0.5
	c-1.1,0-2.2-0.1-3.3-0.3c-1-0.2-2-0.5-3-0.8c-0.8-0.3-1.7-0.6-2.5-1.1L0,34.5z M183.7,36.2h7.9V24.5l3-3.8l8.7,15.4h9.3l-12.2-20.5
	L212,0.5h-9.8l-7.9,11.9c-0.4,0.6-0.8,1.3-1.2,1.9s-0.8,1.3-1.2,2h-0.1V0.5h-7.9L183.7,36.2z M152.7,36.2h7.9v-6.9
	c-0.1,0.1-0.2,0.2-0.2,0.3c-0.2,0.3-0.1,0.6-0.5,0.9l-0.1,0.1c-0.2,0.1-0.2,0.1-0.5,0.1c0.1,0.5,0.3,1.3-0.2,1.7
	c-0.1,0.1-0.3,0-0.4-0.1l-0.4-0.5c-0.1-0.2-0.2-0.3-0.2-0.5l-0.2,0.1c0.3,0.8,0.1,1.7-0.5,2.3l-0.8-2.1c-0.3,0.8,0,2.2-1.2,2.8
	l-0.1-2.5c-0.5,1.2-0.4,1.8-1.8,2.8l0.8-2.6l-1.5,1.5L152.7,36.2z M166.5,23.2c0.4,0.3,0.7,0.8,1,1.2c0.6,1.1,1,2.3,1.2,3.5
	c0.5,2.2,1,4,1.4,5.4c0.3,1,0.6,2,1,2.9h8.1c-0.2-0.5-0.4-1-0.6-1.6c-0.2-0.7-0.4-1.5-0.7-2.5s-0.5-1.9-0.8-3s-0.5-2.1-0.7-3.1
	c-0.3-1.5-0.9-2.9-1.8-4.2c0-0.1-0.1-0.1-0.1-0.2c-0.1,0.2-0.2,0.3-0.4,0.4c-0.2,0.2-3-1-3.5-1.1c-0.7-0.1-2.9-0.2-3.6,0.3h0.1v1
	l-0.6,0.2C166.8,22.7,166.8,23,166.5,23.2L166.5,23.2z M171.9,19.3c0.8-0.3,1.5-0.7,2.2-1.2c0.8-0.5,1.4-1.2,2-1.9
	c0.6-0.8,1.1-1.6,1.4-2.5c0.4-1,0.6-2,0.5-3.1c0-1.5-0.3-3-0.9-4.3c-0.5-1.2-1.4-2.3-2.4-3.2c-1.4-1-3-1.8-4.7-2.1
	c-0.3-0.1-0.6-0.1-0.9-0.2c0.2,1.4-1.3,2.8-1.3,3.5c0.9-0.8,2-2.4,2.6-2.9l0.3-0.2c0.4,1-1.5,2.5-1.7,3.3c0.6-0.5,2.5-2.2,3-1.8
	l-1.8,2.1l0.1,0.1l2.1-1.1v0.5c-0.4,0.3-0.5,0.5-0.8,0.8c-0.5,0.4-0.4,0.3,0,0.7c-0.3,0.8-0.5,0.4-0.2,1.2c0.1,0.4-0.1,0.5-0.1,1.3
	c-0.1,0.8-0.2,1.6-0.4,2.4l0.3,0.3c-0.3,0.4-0.3,1,0,1.4l-0.5,0.9c0.3,0.6-0.1,0.8-0.3,1.3c-0.1,0.3,0.1,0.9-0.3,1.3
	c-0.2,0.2-0.1,0-0.5,0.2c0.3,0.5,0.4,0.8-0.1,1.2l-0.1,0.1c-0.2,0.1-0.2,0.1-0.5,0.1l0.5,1C170.2,18.7,171,19,171.9,19.3L171.9,19.3
	z M168.9,0.7l-1.4-0.2c0.5,1.6-0.7,3.2-0.6,3.7h0.1L168.9,0.7z M167.2,0.5c-1.3-0.1-2.6-0.2-3.8-0.2c-2.2,0-4.1,0.1-5.9,0.2
	c-1.8,0.1-3.4,0.3-4.7,0.5v16.4c0.4-0.3,0.8-0.6,1.1-0.9c0.4-0.4,0.3-0.8,1.2-1.4l0.3-0.3c0.9-0.6,3.2,0.1,4,0.5
	c1.1-0.8,0.8-0.6,1.2-1.8c0.3-0.9-0.1-1.2,0.2-2c0.4-0.7,0.9-1.4,1.5-1.9c0.5-0.6,1-1.2,1.5-1.8c1-1.1,1.8-2.4,2.4-3.8
	C166.5,3.4,167,1.3,167.2,0.5L167.2,0.5z M152.8,17.8v15.4c0.1-0.5,0.7-1.1,0.8-1.6c0.2-0.7,0.3-1.1,0.5-1.8
	c0.3-1.3,0.6-2.4,0.9-3.6c0.2-0.7,0-1.1,0.2-1.9c0.2-0.6,0.4-1.2,0.6-1.8c0.2-0.3,0.9-0.9,1.3-1.5c0.4-0.5,0.7-1.1,1-1.7
	c-0.6-0.3-0.3-0.8-1.2-1.1c-0.6-0.2-0.9-0.2-1.4-0.4C154.5,17.4,153.6,17.4,152.8,17.8L152.8,17.8z M136.8,27.1l2.7,9.1h8.6
	l-11-35.7h-10.4l-10.7,35.7h8.2l2.5-9.1H136.8z M127.8,21.1l2.1-7.6c0.2-0.7,0.4-1.4,0.5-2.2s0.4-1.6,0.5-2.4s0.3-1.6,0.5-2.3h0.1
	c0.2,0.7,0.4,1.5,0.6,2.2s0.4,1.6,0.6,2.4s0.4,1.5,0.6,2.3l2.2,7.6H127.8z M91.5,36.2h21.9v-6.8h-14V0.5h-7.9V36.2z M77,36.2V21.3
	L88.5,0.5h-8.9l-3.5,8.6c-0.5,1.2-1,2.4-1.4,3.5s-0.9,2.2-1.2,3.3h-0.1c-0.3-0.8-0.6-1.5-0.8-2.2s-0.6-1.5-0.9-2.2s-0.6-1.6-1-2.4
	L67,0.5h-9.1L69,21.6v14.6H77z M29.6,36.2h7.9V24.5l3-3.8l8.7,15.4h9.3L46.2,15.7L57.9,0.5h-9.8l-7.9,11.9c-0.4,0.6-0.9,1.3-1.2,1.9
	s-0.8,1.3-1.2,2h-0.1V0.5h-7.9L29.6,36.2z"/>
</svg>
