<svg id="Layer_1" data-name="Layer 1" xmlns="http://www.w3.org/2000/svg" viewBox="0 0 359.85 159.23"><defs><style>.cls-1{fill:#fff;}</style></defs><title>dasos logo</title><path class="cls-1" d="M-486.11,471.56a7.55,7.55,0,0,1-3.38-.75,8.45,8.45,0,0,1-2.61-2,9.25,9.25,0,0,1-1.68-2.85,9.6,9.6,0,0,1-.59-3.29,9.17,9.17,0,0,1,.63-3.37,9.24,9.24,0,0,1,1.74-2.84,8.42,8.42,0,0,1,2.64-2,7.46,7.46,0,0,1,3.3-.73,7.17,7.17,0,0,1,3.36.78,8.53,8.53,0,0,1,2.6,2,9.25,9.25,0,0,1,1.69,2.86,9.38,9.38,0,0,1,.59,3.25,9.2,9.2,0,0,1-.63,3.37,9.36,9.36,0,0,1-1.73,2.83,8.35,8.35,0,0,1-2.63,1.95A7.46,7.46,0,0,1-486.11,471.56Zm-6-8.9a7.76,7.76,0,0,0,.43,2.58,7.28,7.28,0,0,0,1.23,2.22,5.89,5.89,0,0,0,1.9,1.53,5.36,5.36,0,0,0,2.48.57,5.11,5.11,0,0,0,2.52-.61,6.14,6.14,0,0,0,1.89-1.58,7,7,0,0,0,1.19-2.21,8,8,0,0,0,.41-2.5,7.83,7.83,0,0,0-.44-2.59,6.76,6.76,0,0,0-1.23-2.2,6.12,6.12,0,0,0-1.91-1.52,5.18,5.18,0,0,0-2.43-.57,5.37,5.37,0,0,0-2.53.59,6.22,6.22,0,0,0-1.89,1.56,7.11,7.11,0,0,0-1.2,2.2A7.85,7.85,0,0,0-492.12,462.66Z" transform="translate(515.1 -333.46)"/><path class="cls-1" d="M-454.59,471.44h-2.18v-7.23a5.53,5.53,0,0,0-.63-3,2.15,2.15,0,0,0-1.92-.94,3.5,3.5,0,0,0-1.33.26,4.88,4.88,0,0,0-1.26.7,4.75,4.75,0,0,0-1,1.06,4.6,4.6,0,0,0-.67,1.37v7.79h-2.18V458.52h2v2.78a5.61,5.61,0,0,1,2.22-2.18,6.22,6.22,0,0,1,3.15-.82,3.88,3.88,0,0,1,1.86.41,3.08,3.08,0,0,1,1.18,1.14,4.88,4.88,0,0,1,.63,1.72,11.17,11.17,0,0,1,.19,2.15Z" transform="translate(515.1 -333.46)"/><path class="cls-1" d="M-436.09,471.69a6.5,6.5,0,0,1-2.67-.54,6.25,6.25,0,0,1-2.08-1.44,6.74,6.74,0,0,1-1.34-2.14,6.86,6.86,0,0,1-.49-2.59,6.72,6.72,0,0,1,.49-2.57,6.41,6.41,0,0,1,1.36-2.13,6.47,6.47,0,0,1,2.09-1.45,6.63,6.63,0,0,1,2.67-.53,6.27,6.27,0,0,1,2.66.55,6.27,6.27,0,0,1,2,1.44,6.61,6.61,0,0,1,1.3,2.11,7,7,0,0,1,.46,2.48c0,.18,0,.35,0,.5a2.36,2.36,0,0,1,0,.34h-10.72a5,5,0,0,0,.45,1.76,4.63,4.63,0,0,0,1,1.36,4.46,4.46,0,0,0,1.35.89,4,4,0,0,0,1.6.32,4.16,4.16,0,0,0,1.16-.16,5.56,5.56,0,0,0,1.07-.43,3.55,3.55,0,0,0,.87-.67,2.58,2.58,0,0,0,.58-.89l1.88.52a4.54,4.54,0,0,1-.87,1.31,5.9,5.9,0,0,1-1.29,1,6.91,6.91,0,0,1-1.62.68A7.08,7.08,0,0,1-436.09,471.69Zm4.43-7.57a4.61,4.61,0,0,0-.46-1.7,4.32,4.32,0,0,0-1-1.32,4.51,4.51,0,0,0-1.35-.86,4.42,4.42,0,0,0-1.63-.31,4.42,4.42,0,0,0-1.63.31,4.23,4.23,0,0,0-1.35.87,4.34,4.34,0,0,0-.94,1.32,4.73,4.73,0,0,0-.43,1.69Z" transform="translate(515.1 -333.46)"/><path class="cls-1" d="M-386.63,458.52h2.1L-390,471.44h-1.81l-2.6-6.31-2.57,6.31h-1.8l-5.5-12.92h2.08l4.45,10.77,2.18-5.37-2.22-5.37h1.8l1.58,4.13,1.59-4.13h1.8l-2.2,5.37,2.18,5.37Z" transform="translate(515.1 -333.46)"/><path class="cls-1" d="M-373.1,456.1v-2.72h2.18v2.72Zm0,15.34V458.52h2.18v12.92Z" transform="translate(515.1 -333.46)"/><path class="cls-1" d="M-351.33,470.8l-.52.23c-.21.09-.46.18-.73.27a6.78,6.78,0,0,1-.89.23,6.43,6.43,0,0,1-1,.08,3.32,3.32,0,0,1-2-.65,2.4,2.4,0,0,1-.87-2v-8.68h-1.76v-1.71h1.76v-4.3h2.18v4.3h2.89v1.71h-2.89v8a1.35,1.35,0,0,0,.47,1,1.61,1.61,0,0,0,1,.32,3.16,3.16,0,0,0,1.17-.21,4,4,0,0,0,.73-.34Z" transform="translate(515.1 -333.46)"/><path class="cls-1" d="M-328.69,471.44h-2.18v-7.23a5.23,5.23,0,0,0-.69-3,2.33,2.33,0,0,0-2-1,3.3,3.3,0,0,0-1.29.26,4.54,4.54,0,0,0-1.2.7,5.27,5.27,0,0,0-1,1.06,4.8,4.8,0,0,0-.65,1.37v7.79h-2.18V453.38h2.18v7.92a5.68,5.68,0,0,1,2.08-2.21,5.5,5.5,0,0,1,2.86-.79,4,4,0,0,1,1.93.42,3.41,3.41,0,0,1,1.27,1.14,5,5,0,0,1,.68,1.72,10.43,10.43,0,0,1,.21,2.14Z" transform="translate(515.1 -333.46)"/><path class="cls-1" d="M-297.67,458v13.41h-2.23V453.87h1.74l10.88,13.68V453.9H-285v17.54h-1.88Z" transform="translate(515.1 -333.46)"/><path class="cls-1" d="M-268.6,471.69a4.81,4.81,0,0,1-1.71-.31,4.19,4.19,0,0,1-1.37-.86,4,4,0,0,1-.92-1.27,3.85,3.85,0,0,1-.33-1.6,3.4,3.4,0,0,1,.39-1.62,3.83,3.83,0,0,1,1.13-1.25,5.76,5.76,0,0,1,1.73-.81,7.63,7.63,0,0,1,2.19-.3,11.39,11.39,0,0,1,1.91.17,9.64,9.64,0,0,1,1.7.47v-1a3.35,3.35,0,0,0-.89-2.48,3.38,3.38,0,0,0-2.52-.9,7.28,7.28,0,0,0-4.11,1.5l-.72-1.41a9,9,0,0,1,5-1.68,5.54,5.54,0,0,1,4,1.36,5.06,5.06,0,0,1,1.42,3.84v5.27c0,.51.23.77.69.79v1.88l-.57.07a3.38,3.38,0,0,1-.47,0,1.35,1.35,0,0,1-1-.39,1.53,1.53,0,0,1-.46-.92l-.05-.92a5.55,5.55,0,0,1-2.19,1.77A6.79,6.79,0,0,1-268.6,471.69Zm.57-1.64a5.38,5.38,0,0,0,2.16-.43,3.51,3.51,0,0,0,1.52-1.15,1.35,1.35,0,0,0,.47-1v-1.9a9,9,0,0,0-3.29-.62,4.69,4.69,0,0,0-2.66.69,2.12,2.12,0,0,0-1,1.81,2.44,2.44,0,0,0,.21,1,2.3,2.3,0,0,0,.59.82,3.15,3.15,0,0,0,.9.55A3.18,3.18,0,0,0-268,470.05Z" transform="translate(515.1 -333.46)"/><path class="cls-1" d="M-242.23,470.8l-.52.23c-.21.09-.46.18-.73.27a6.78,6.78,0,0,1-.89.23,6.53,6.53,0,0,1-1,.08,3.32,3.32,0,0,1-2-.65,2.4,2.4,0,0,1-.87-2v-8.68H-250v-1.71h1.76v-4.3h2.18v4.3h2.89v1.71h-2.89v8a1.35,1.35,0,0,0,.47,1,1.61,1.61,0,0,0,1,.32,3.16,3.16,0,0,0,1.17-.21,4,4,0,0,0,.73-.34Z" transform="translate(515.1 -333.46)"/><path class="cls-1" d="M-226.82,471.69a3.6,3.6,0,0,1-3.06-1.37,6.54,6.54,0,0,1-1-4.05v-7.75h2.17v7.33q0,4,2.75,4a4.19,4.19,0,0,0,2.51-.86,5.08,5.08,0,0,0,1.75-2.34v-8.09h2.17v10.25c0,.51.23.77.69.79v1.88l-.58.06h-.41a1.54,1.54,0,0,1-1.07-.38,1.31,1.31,0,0,1-.46-.95l0-1.51a6,6,0,0,1-2.27,2.24A6.32,6.32,0,0,1-226.82,471.69Z" transform="translate(515.1 -333.46)"/><path class="cls-1" d="M-199.7,460.43a5.59,5.59,0,0,0-2.89.84,4.26,4.26,0,0,0-1.76,2.2v8h-2.18V458.52h2v3a6.17,6.17,0,0,1,1.75-2.17,4.34,4.34,0,0,1,2.33-.92h.42a1.37,1.37,0,0,1,.3,0Z" transform="translate(515.1 -333.46)"/><path class="cls-1" d="M-182.73,471.69a6.47,6.47,0,0,1-2.67-.54,6.25,6.25,0,0,1-2.08-1.44,6.59,6.59,0,0,1-1.35-2.14,7,7,0,0,1-.48-2.59,6.91,6.91,0,0,1,.48-2.57,6.58,6.58,0,0,1,1.36-2.13,6.58,6.58,0,0,1,2.09-1.45,6.66,6.66,0,0,1,2.67-.53,6.24,6.24,0,0,1,2.66.55,6.27,6.27,0,0,1,2,1.44,6.44,6.44,0,0,1,1.3,2.11,6.81,6.81,0,0,1,.46,2.48c0,.18,0,.35,0,.5a2.11,2.11,0,0,1,0,.34H-187a5.18,5.18,0,0,0,.44,1.76,4.48,4.48,0,0,0,1,1.36,4.23,4.23,0,0,0,1.35.89,3.9,3.9,0,0,0,1.59.32,4.18,4.18,0,0,0,1.17-.16,5.47,5.47,0,0,0,1.06-.43,3.6,3.6,0,0,0,.88-.67,2.74,2.74,0,0,0,.58-.89l1.88.52a4.78,4.78,0,0,1-.88,1.31,5.68,5.68,0,0,1-1.29,1,6.57,6.57,0,0,1-1.62.68A7.06,7.06,0,0,1-182.73,471.69Zm4.43-7.57a4.81,4.81,0,0,0-.46-1.7,4.52,4.52,0,0,0-1-1.32,4.34,4.34,0,0,0-1.34-.86,4.51,4.51,0,0,0-1.64-.31,4.46,4.46,0,0,0-1.63.31,4.35,4.35,0,0,0-1.35.87,4.34,4.34,0,0,0-.94,1.32,5,5,0,0,0-.43,1.69Z" transform="translate(515.1 -333.46)"/><path class="cls-1" d="M-494.1,436.57V375.82h21.57a32.23,32.23,0,0,1,12.87,2.39,26.53,26.53,0,0,1,9.24,6.51,27.11,27.11,0,0,1,5.61,9.62,36.34,36.34,0,0,1,1.88,11.77,35.45,35.45,0,0,1-2.1,12.53,27.41,27.41,0,0,1-5.94,9.59,26.53,26.53,0,0,1-9.33,6.16,32.88,32.88,0,0,1-12.23,2.18Zm41.42-30.46a28.18,28.18,0,0,0-1.33-8.82,19.1,19.1,0,0,0-3.89-6.88,18.21,18.21,0,0,0-6.25-4.5,20.61,20.61,0,0,0-8.38-1.62h-12V428.1h12a20.64,20.64,0,0,0,8.51-1.67,17.56,17.56,0,0,0,6.25-4.62,19.81,19.81,0,0,0,3.8-7A28.41,28.41,0,0,0-452.68,406.11Z" transform="translate(515.1 -333.46)"/><path class="cls-1" d="M-406.82,375.82h8.38l24,60.75h-10.09L-391,420.05h-23.45l-6.33,16.52h-10.18ZM-392.87,413l-9.76-26.09L-412.72,413Z" transform="translate(515.1 -333.46)"/><path class="cls-1" d="M-321.68,390.11a13.13,13.13,0,0,0-2.49-2,23.56,23.56,0,0,0-3.8-2,27.85,27.85,0,0,0-4.8-1.54,23.76,23.76,0,0,0-5.34-.6q-6.08,0-8.94,2.22a7.35,7.35,0,0,0-2.87,6.16A6.66,6.66,0,0,0-349,396a7.65,7.65,0,0,0,2.78,2.48,21.64,21.64,0,0,0,4.71,1.88c1.88.55,4.07,1.13,6.58,1.76a76.33,76.33,0,0,1,8.35,2.48,23.66,23.66,0,0,1,6.28,3.33,13.58,13.58,0,0,1,4,4.84,15.66,15.66,0,0,1,1.42,7,16.88,16.88,0,0,1-1.76,8,15,15,0,0,1-4.79,5.43,21,21,0,0,1-7.06,3.08,36.05,36.05,0,0,1-8.64,1,43,43,0,0,1-13.39-2.1A38.22,38.22,0,0,1-362.24,429l4.36-8.21a20.17,20.17,0,0,0,3.21,2.48,30,30,0,0,0,4.88,2.52,42.21,42.21,0,0,0,6,2,27.39,27.39,0,0,0,6.76.82q5.64,0,8.73-2a6.47,6.47,0,0,0,3.08-5.82,6.25,6.25,0,0,0-1.16-3.85,9.93,9.93,0,0,0-3.29-2.7,29.17,29.17,0,0,0-5.22-2.09q-3.08-.94-7-2a73.87,73.87,0,0,1-7.91-2.52,20.11,20.11,0,0,1-5.61-3.21,12.72,12.72,0,0,1-3.38-4.41,14.63,14.63,0,0,1-1.15-6.12,17.65,17.65,0,0,1,1.71-7.91,16.89,16.89,0,0,1,4.66-5.82,20.36,20.36,0,0,1,7-3.55,30.38,30.38,0,0,1,8.72-1.2,32,32,0,0,1,11.38,2,37.71,37.71,0,0,1,9.16,4.88Z" transform="translate(515.1 -333.46)"/><path class="cls-1" d="M-269.83,437a26.62,26.62,0,0,1-11.85-2.61,29.41,29.41,0,0,1-9.2-6.93,31.31,31.31,0,0,1-5.95-9.89,31.92,31.92,0,0,1-2.09-11.38,31.08,31.08,0,0,1,2.22-11.63,32.11,32.11,0,0,1,6.12-9.84,29.27,29.27,0,0,1,9.24-6.81,27,27,0,0,1,11.68-2.52,25.94,25.94,0,0,1,11.85,2.7,29.89,29.89,0,0,1,9.15,7.05,32.47,32.47,0,0,1,5.91,9.89,31.61,31.61,0,0,1,2.09,11.25,31.49,31.49,0,0,1-2.18,11.64,30.56,30.56,0,0,1-6.12,9.79,29.79,29.79,0,0,1-9.28,6.76A26.7,26.7,0,0,1-269.83,437Zm-19.34-30.81a25.62,25.62,0,0,0,1.37,8.3,22.52,22.52,0,0,0,3.89,7.1,18.79,18.79,0,0,0,6.12,4.92,17.34,17.34,0,0,0,8,1.84,16.89,16.89,0,0,0,8.17-1.92,19.25,19.25,0,0,0,6-5.09,22.93,22.93,0,0,0,3.76-7.1,25.72,25.72,0,0,0,1.28-8.05,25.24,25.24,0,0,0-1.37-8.34,22.22,22.22,0,0,0-3.89-7,19.43,19.43,0,0,0-6.07-4.87,16.93,16.93,0,0,0-7.92-1.84A17.13,17.13,0,0,0-278,386a19.63,19.63,0,0,0-6.08,5,22.33,22.33,0,0,0-3.8,7.06A25.25,25.25,0,0,0-289.17,406.19Z" transform="translate(515.1 -333.46)"/><path class="cls-1" d="M-184.53,390.11a12.71,12.71,0,0,0-2.48-2,23.27,23.27,0,0,0-3.81-2,27.45,27.45,0,0,0-4.79-1.54,23.76,23.76,0,0,0-5.34-.6q-6.09,0-9,2.22a7.37,7.37,0,0,0-2.86,6.16,6.66,6.66,0,0,0,.9,3.64,7.57,7.57,0,0,0,2.78,2.48,21.74,21.74,0,0,0,4.7,1.88c1.89.55,4.08,1.13,6.59,1.76a75.47,75.47,0,0,1,8.34,2.48,23.57,23.57,0,0,1,6.29,3.33,13.68,13.68,0,0,1,4,4.84,15.66,15.66,0,0,1,1.41,7,16.88,16.88,0,0,1-1.75,8,15,15,0,0,1-4.79,5.43,21,21,0,0,1-7.06,3.08,36.05,36.05,0,0,1-8.64,1,43,43,0,0,1-13.39-2.1A38.1,38.1,0,0,1-225.08,429l4.36-8.21a20.17,20.17,0,0,0,3.21,2.48,30,30,0,0,0,4.88,2.52,42.21,42.21,0,0,0,6,2,27.39,27.39,0,0,0,6.76.82q5.64,0,8.72-2a6.46,6.46,0,0,0,3.09-5.82,6.25,6.25,0,0,0-1.16-3.85,9.93,9.93,0,0,0-3.29-2.7,29.17,29.17,0,0,0-5.22-2.09q-3.09-.94-7-2a73.87,73.87,0,0,1-7.91-2.52,20,20,0,0,1-5.61-3.21,12.72,12.72,0,0,1-3.38-4.41,14.63,14.63,0,0,1-1.15-6.12,17.65,17.65,0,0,1,1.71-7.91,16.89,16.89,0,0,1,4.66-5.82,20.4,20.4,0,0,1,7-3.55,30.45,30.45,0,0,1,8.73-1.2,32,32,0,0,1,11.38,2,37.71,37.71,0,0,1,9.16,4.88Z" transform="translate(515.1 -333.46)"/><path class="cls-1" d="M-322.35,350.15a4.49,4.49,0,0,0-.76-.56,9,9,0,0,0-1.33-.7,11.29,11.29,0,0,0-1.7-.57,7.3,7.3,0,0,0-1.86-.24,4.2,4.2,0,0,0-2.51.62,2.06,2.06,0,0,0-.83,1.74,1.75,1.75,0,0,0,.31,1.08,2.75,2.75,0,0,0,.9.76,8.22,8.22,0,0,0,1.5.59c.6.17,1.29.36,2.08.56,1,.28,1.95.57,2.79.89a7.47,7.47,0,0,1,2.13,1.18,4.94,4.94,0,0,1,1.35,1.7,5.71,5.71,0,0,1,.47,2.44,6,6,0,0,1-.64,2.88,5.23,5.23,0,0,1-1.71,1.93,7.22,7.22,0,0,1-2.48,1.08,12.35,12.35,0,0,1-2.95.34,15.61,15.61,0,0,1-4.67-.71,14.29,14.29,0,0,1-4.13-2l1.8-3.51a6.09,6.09,0,0,0,1,.69,14.44,14.44,0,0,0,1.64.86,12.59,12.59,0,0,0,2.1.72,9.37,9.37,0,0,0,2.36.3c2.25,0,3.37-.72,3.37-2.16a1.79,1.79,0,0,0-.38-1.15,3.3,3.3,0,0,0-1.09-.83,10.75,10.75,0,0,0-1.72-.65l-2.25-.65a20.67,20.67,0,0,1-2.61-.9,7,7,0,0,1-1.85-1.15,4.49,4.49,0,0,1-1.11-1.54,5.46,5.46,0,0,1-.37-2.09,6.54,6.54,0,0,1,.59-2.83,5.79,5.79,0,0,1,1.65-2.07,7.48,7.48,0,0,1,2.43-1.26,10.29,10.29,0,0,1,3-.43,11.65,11.65,0,0,1,4.08.7,15.19,15.19,0,0,1,3.25,1.64Z" transform="translate(515.1 -333.46)"/><path class="cls-1" d="M-313.19,365.64v-21h4.08v10l8.81-10h4.49l-8,9.31,8.54,11.68h-4.58l-6.53-9.08-2.69,2.81v6.27Z" transform="translate(515.1 -333.46)"/><path class="cls-1" d="M-287.51,344.65l5.17,10.11,5.27-10.11h4.4l-7.63,13.66v7.33h-4.05v-7.39l-7.59-13.6Z" transform="translate(515.1 -333.46)"/><path class="cls-1" d="M-266.82,365.64v-21h4.08v17.41H-252v3.58Z" transform="translate(515.1 -333.46)"/><path class="cls-1" d="M-240,344.65h3.61l8,21h-4.2l-1.95-5.24h-7.33l-1.92,5.24H-248Zm4.7,12.89-2.9-8.25-3,8.25Z" transform="translate(515.1 -333.46)"/><path class="cls-1" d="M-222.6,365.64v-21h9.28a5.85,5.85,0,0,1,2.67.61,6.83,6.83,0,0,1,2.12,1.59,7.64,7.64,0,0,1,1.39,2.25,6.87,6.87,0,0,1,.5,2.53,7,7,0,0,1-1,3.71,5.84,5.84,0,0,1-2.76,2.4l4.78,7.9h-4.58l-4.28-7h-4v7Zm4.08-10.61h5.11a2.16,2.16,0,0,0,1-.27,2.55,2.55,0,0,0,.84-.73A3.3,3.3,0,0,0-211,353a4.16,4.16,0,0,0,.21-1.33,3.7,3.7,0,0,0-.24-1.36,3.38,3.38,0,0,0-.63-1.08,2.85,2.85,0,0,0-.92-.71,2.32,2.32,0,0,0-1.05-.25h-4.93Z" transform="translate(515.1 -333.46)"/><path class="cls-1" d="M-199.4,365.64v-21h4.08v10l8.81-10H-182l-8,9.31,8.54,11.68h-4.58l-6.53-9.08-2.69,2.81v6.27Z" transform="translate(515.1 -333.46)"/><path class="cls-1" d="M-356.77,336.4s-8.2.58-16.78,22.87c-7.71,20-25.52,13.6-29,10.82,0,0,2.89-19.94,21.5-24.94,0,0-23.62,6.21-24,22.7,0,0-9.9-17,10.86-29C-376,328.34-356.77,336.4-356.77,336.4Z" transform="translate(515.1 -333.46)"/><polygon class="cls-1" points="359.85 159.23 0 159.23 0 21.36 97.66 21.36 97.66 23.36 2 23.36 2 157.23 357.85 157.23 357.85 23.36 344.73 23.36 344.73 21.36 359.85 21.36 359.85 159.23"/></svg>